<svg width="240" height="240" viewBox="0 0 240 240" fill="none" xmlns="http://www.w3.org/2000/svg">
  <!-- Dashboard Frame -->
  <rect x="40" y="40" width="160" height="160" rx="12" stroke="#F2EEF4" stroke-width="8"/>
  
  <!-- Graph Lines -->
  <path d="M60 160 L100 120 L140 140 L180 80" stroke="#5C866D" stroke-width="4" stroke-linecap="round"/>
  <path d="M60 140 L100 160 L140 100 L180 120" stroke="#6B4175" stroke-width="4" stroke-linecap="round"/>
  
  <!-- Data Points -->
  <circle cx="60" cy="160" r="4" fill="#5C866D"/>
  <circle cx="100" cy="120" r="4" fill="#5C866D"/>
  <circle cx="140" cy="140" r="4" fill="#5C866D"/>
  <circle cx="180" cy="80" r="4" fill="#5C866D"/>
  
  <circle cx="60" cy="140" r="4" fill="#6B4175"/>
  <circle cx="100" cy="160" r="4" fill="#6B4175"/>
  <circle cx="140" cy="100" r="4" fill="#6B4175"/>
  <circle cx="180" cy="120" r="4" fill="#6B4175"/>
  
  <!-- Mini Cards -->
  <rect x="60" y="40" width="40" height="20" rx="4" stroke="#F2EEF4" stroke-width="2"/>
  <rect x="110" y="40" width="40" height="20" rx="4" stroke="#F2EEF4" stroke-width="2"/>
  <rect x="160" y="40" width="40" height="20" rx="4" stroke="#F2EEF4" stroke-width="2"/>
  
  <!-- Axis Lines -->
  <path d="M60 180 L180 180" stroke="#F2EEF4" stroke-width="2" stroke-linecap="round"/>
  <path d="M60 60 L60 180" stroke="#F2EEF4" stroke-width="2" stroke-linecap="round"/>
  
  <!-- Axis Ticks -->
  <path d="M80 178 L80 182" stroke="#F2EEF4" stroke-width="2"/>
  <path d="M120 178 L120 182" stroke="#F2EEF4" stroke-width="2"/>
  <path d="M160 178 L160 182" stroke="#F2EEF4" stroke-width="2"/>
  
  <path d="M58 160 L62 160" stroke="#F2EEF4" stroke-width="2"/>
  <path d="M58 120 L62 120" stroke="#F2EEF4" stroke-width="2"/>
  <path d="M58 80 L62 80" stroke="#F2EEF4" stroke-width="2"/>
</svg>
