<svg width="24" height="24" viewBox="0 0 24 24" fill="none" xmlns="http://www.w3.org/2000/svg">
  <path d="M21 3L15 9M15 3L21 9" stroke="#F2EEF4" stroke-width="2" stroke-linecap="round" stroke-linejoin="round"/>
  <path d="M9 9C10.6569 9 12 7.65685 12 6C12 4.34315 10.6569 3 9 3C7.34315 3 6 4.34315 6 6C6 7.65685 7.34315 9 9 9Z" stroke="#F2EEF4" stroke-width="2" stroke-linecap="round" stroke-linejoin="round"/>
  <path d="M15 21C16.6569 21 18 19.6569 18 18C18 16.3431 16.6569 15 15 15C13.3431 15 12 16.3431 12 18C12 19.6569 13.3431 21 15 21Z" stroke="#F2EEF4" stroke-width="2" stroke-linecap="round" stroke-linejoin="round"/>
  <path d="M3 21L9 15M9 21L3 15" stroke="#F2EEF4" stroke-width="2" stroke-linecap="round" stroke-linejoin="round"/>
</svg>
